<svg version="1.2" xmlns="http://www.w3.org/2000/svg" viewBox="0 0 2000 1381" width="2000" height="1381"><style>.a{fill:#9d0885}.b{fill:#787878}.c{fill:#525252}.d{fill:#8c0e78}.e{fill:#723268}.f{fill:#6b6b6b}</style><path class="a" d="m1085.5 66.1c20.9 0 42 0.4 47 0.9 6.2 0.7 10.2 1.7 12.7 3.3 2.1 1.2 4.7 3.8 5.8 5.7 1.3 2.4 1.9 5.4 2 9.8 0 4.3-4 25.1-13.1 67.5-7.1 33.6-18 84.6-24 113.2-6.1 28.6-20.2 95.6-31.5 149-11.3 53.4-23.4 110.7-26.9 127.5-3.5 16.8-18.1 85.4-32.5 152.5-14.3 67.1-26.7 125.1-27.6 129-0.8 3.9-15 69.8-31.5 146.5-16.5 76.7-32.1 149.6-34.5 162-2.5 12.4-7 34.2-9.9 48.5-3 14.3-9.8 46-15 70.5-5.3 24.5-10.6 46.7-11.8 49.4-1.2 2.7-3.9 6.4-5.9 8.3-2.1 1.8-5 3.8-6.5 4.4-1.6 0.6-5.9 1.5-9.8 2.1-3.9 0.5-25.5 0.9-48 0.9-28.2-0.1-42.1-0.4-44.5-1.2-1.9-0.7-4.8-2.1-6.4-3.3-1.6-1.1-3.6-3.6-4.3-5.3-0.7-1.8-1.3-5.8-1.3-8.8 0-3.3 6.5-35.8 16.4-82.3 9.1-42.2 35.4-165.8 58.6-274.7 23.2-108.9 46.8-220 52.5-247 5.6-27 10.5-50.4 10.8-52 0.3-1.6 4.7-21.9 9.6-45 5-23.1 13.3-62 18.6-86.5 5.2-24.5 19.2-90.2 31-146 11.9-55.8 28.1-131.9 36-169 7.9-37.1 16.5-77.2 19-89 2.6-11.8 5.5-23.5 6.6-26 1.1-2.5 3.2-5.8 4.7-7.3 1.5-1.6 3.9-3.5 5.5-4.3 1.5-0.8 4.4-1.8 6.5-2.3 2-0.5 20.8-0.9 41.7-1zm869 0.4l4.5 2.6c2.5 1.4 5.6 4.4 6.9 6.5 2 3.2 2.4 5.1 2.4 10.4-0.1 4.3-5.9 33.6-17.3 86.5-9.4 44-20.2 94.6-24 112.5-3.8 17.9-11.6 54.8-17.4 82-5.8 27.2-15.9 74.9-22.5 106-6.6 31.1-17.9 84.2-25.1 118-7.2 33.8-15.8 74.1-19 89.5-3.2 15.4-12.6 59.7-20.9 98.5-8.2 38.8-20 93.9-26 122.5-6.1 28.6-16 75.2-22 103.5-6 28.3-14.2 66.6-18.1 85-3.9 18.4-10.9 51.3-15.5 73-4.6 21.7-12.7 59.7-18 84.5-5.2 24.7-10.3 47.2-11.1 50-0.9 2.7-2.6 6.6-3.8 8.5-1.1 1.9-3.9 4.7-6.1 6.3-2.2 1.5-5.8 3.3-8 3.8-2.5 0.7-20 1.1-46.5 1.1-31.1 0-44.2-0.4-49-1.3-3.6-0.7-7.8-2.3-9.5-3.4-1.7-1.1-3.8-3.6-4.7-5.5-1.2-2.2-1.8-5.8-1.8-9.8 0-3.7 2.2-16.4 5.5-32 3-14.1 7.9-37.2 10.9-51.2 3-14 7-31.6 9-39 2-7.4 17.1-78.1 33.6-157 16.5-78.9 32.8-156.3 36.1-172 3.3-15.7 8.6-41.1 11.9-56.5 3.3-15.4 11.1-53.2 17.5-84 6.4-30.8 14.3-68.4 17.6-83.5 3.3-15.1 11.2-51.8 17.4-81.5 6.3-29.7 16.1-76.3 21.9-103.5 5.8-27.2 16.6-78.3 24.1-113.5 7.5-35.2 16.5-77.5 20-94 3.5-16.5 11.4-53.4 17.5-82 6.1-28.6 12-55.6 13.3-60 1.2-4.4 3.4-9.7 4.9-11.8 1.6-2 4-4.5 5.5-5.5 1.5-0.9 5.2-2.2 8.3-2.9 3.9-0.8 19.1-1.1 97.5-0.8zm-1687 1c201.5 0.6 207.3 0.7 217 2.6 5.5 1.1 16.5 4.2 24.5 6.9 8 2.6 20.1 7.3 27 10.4 6.9 3.1 17.9 8.8 24.5 12.7 6.6 3.8 15.9 9.8 20.7 13.2 4.7 3.4 13 9.9 18.5 14.3 5.4 4.5 15 13.5 21.3 20 6.3 6.6 15.8 17.6 21 24.5 5.2 7 13.3 18.9 17.8 26.5 4.6 7.7 11.5 20.2 15.2 27.9 3.8 7.7 9.2 19.8 12.1 27 2.8 7.1 6.6 17.5 8.5 23 1.8 5.5 4.9 16.1 6.8 23.5 2 7.4 4.4 18.7 5.5 25 1.1 6.3 2.5 18 3.2 26 0.7 8 1.3 29.4 1.3 47.5 0 21.5-0.4 36.5-1.2 43-0.8 5.5-2.5 15.9-3.8 23-1.4 7.1-4.3 20.2-6.6 29-2.2 8.8-5.8 21.3-7.9 27.7-2.2 6.5-5.5 16-7.5 21-2 5.1-6.3 15.2-9.4 22.3-3.2 7.1-8.6 18.6-12 25.5-3.4 6.9-9.4 18.1-13.2 25-3.9 6.9-10.8 18.4-15.5 25.5-4.7 7.1-13.9 20-20.3 28.5-6.5 8.5-16.9 21.4-23.1 28.5-6.2 7.1-16.9 18.6-23.8 25.5-6.9 6.9-18 17.2-24.6 22.9-6.6 5.6-17.2 14.2-23.5 19-6.3 4.8-16.2 11.9-22 15.8-5.8 3.9-15.4 9.9-21.5 13.3-6.1 3.5-17.3 9.4-25 13.1-7.7 3.7-19.2 8.7-25.5 11.2-6.3 2.4-19.4 7-29 10-16.2 5.1-17.8 5.8-21.3 9.6-3 3.4-3.7 4.8-3.7 8.3 0 2.4 1.1 7.4 2.4 11.3 1.3 3.9 6.8 18.2 12.1 32 5.3 13.7 13 33.5 17 44 4 10.5 16.2 41.7 27 69.5 10.9 27.8 23.6 60.6 28.5 73 4.8 12.4 16.7 43 26.5 68 9.7 25 26 66.9 36.2 93 10.1 26.1 19.3 50.1 20.4 53.2 1 3.2 1.9 7.7 1.9 10 0 2.4-0.8 5.8-1.8 7.7-0.9 1.9-3.3 4.3-5.2 5.3-2.2 1.1-7.5 2.2-14 2.9-5.8 0.5-30.5 1-55 0.9-25.8 0-46.3-0.4-48.8-1-2.3-0.6-5.4-1.6-7-2.4-1.5-0.8-4.1-2.9-5.8-4.8-1.8-1.8-4.2-5.3-5.4-7.8-1.3-2.5-6.5-15.3-11.7-28.5-5.2-13.2-14.6-37-20.8-53-6.2-16-16.9-43.4-23.8-61-6.9-17.6-20.2-51.8-29.7-76-9.4-24.2-29.7-76.4-45.1-116-15.4-39.6-34.2-87.5-41.8-106.5-7.7-19-19.2-48-25.6-64.5-6.4-16.5-12.1-32-12.5-34.5-0.5-2.6-0.5-6.2 0.1-8.5 0.5-2.2 1.5-4.6 2.2-5.4 0.6-0.8 3.2-2.3 5.7-3.5 4.3-1.9 6.9-2.1 59.5-2.7 30.2-0.4 57.9-1 61.5-1.3 3.6-0.4 9.6-1.2 13.5-1.7 3.9-0.6 11.5-2.2 17-3.6 5.5-1.4 14.9-4.3 21-6.4 6.1-2.2 16.4-6.6 23-9.9 6.6-3.3 17.4-9.5 24-13.8 6.6-4.3 17.9-12.5 25-18.2 7.1-5.8 19-16.3 26.4-23.5 7.3-7.1 16.6-16.8 20.6-21.5 3.9-4.7 10.6-13 14.7-18.5 4.1-5.5 10.9-15.2 15.1-21.5 4.1-6.3 10.8-17.4 14.7-24.5 4-7.1 10-18.9 13.2-26 3.3-7.1 7.4-16.4 9-20.5 1.7-4.1 4.6-12 6.5-17.5 1.8-5.5 4.7-15.2 6.3-21.5 1.6-6.3 4.1-18 5.4-26 1.4-8 2.9-19.7 3.5-26 0.6-6.3 1.1-20.5 1.1-31.5 0-11-0.5-25.2-1.1-31.5-0.5-6.3-2.3-18.1-4-26.3-1.6-8.1-4.5-19.8-6.5-26-2-6.1-5.2-15-7.1-19.7-1.9-4.7-6.3-14.1-9.7-21-3.5-6.9-8.8-16.6-11.9-21.5-3-4.9-9.1-13.3-13.5-18.5-4.4-5.2-11.5-12.9-15.8-17-4.4-4.2-11.3-10.3-15.4-13.5-4.1-3.3-11.1-8.1-15.5-10.7-4.4-2.6-11.8-6.3-16.5-8.2-4.7-2-12.1-4.5-16.5-5.6-4.5-1.1-14.6-2.5-23-3.1-8.8-0.6-78.6-1.2-169-1.5-84.7-0.3-162.1-0.1-172.1 0.3-10.2 0.5-19.3 0.4-21-0.1-1.6-0.5-4.3-1.4-5.9-2-1.7-0.6-4.5-2.4-6.3-4.1-2.2-2-3.8-4.8-4.9-8.5-1.2-4.5-1.5-12.3-1.5-44.5 0-21.5 0.3-39.9 0.7-41 0.4-1.1 1.4-3.7 2.3-5.9 1-2.1 2.5-4.6 3.6-5.5 1-0.9 4.2-2.4 7-3.4 4.9-1.7 14.9-1.7 212.1-1.2z"/><path class="b" d="m1084 65.4c17.9 0 25.1 0.2 16 0.3-9.1 0.2-23.7 0.2-32.5 0-8.8-0.1-1.4-0.3 16.5-0.3zm814 0c19 0 26.8 0.2 17.5 0.3-9.3 0.2-24.9 0.2-34.5 0-9.6-0.1-2-0.3 17-0.3zm-1738 118.1c39.3 0 55.3 0.1 35.5 0.2-19.8 0.2-52 0.2-71.5 0-19.5-0.1-3.3-0.2 36-0.2z"/><path class="c" d="m163.5 66.5c53.9 0 75.7 0.1 48.5 0.2-27.2 0.2-71.3 0.2-98 0-26.7-0.1-4.4-0.2 49.5-0.2zm299 1251c19.3 0 26.9 0.1 17 0.2-9.9 0.2-25.6 0.2-35 0-9.4-0.1-1.3-0.3 18-0.2zm1181.5-0.1c18.4 0 26.1 0.2 17 0.3-9.1 0.2-24.2 0.2-33.5 0-9.3-0.1-1.9-0.3 16.5-0.3z"/><path class="d" d="m369 67.5c50.3 0 70.8 0.1 45.5 0.2-25.3 0.2-66.5 0.2-91.5 0-25-0.1-4.3-0.2 46-0.2zm-327.3 40.5c0.2 8.5 0.2 22.9 0 32-0.1 9.1-0.3 2.1-0.3-15.5 0-17.6 0.2-25 0.3-16.5zm268.3 75.5c26.1 0 36.7 0.1 23.5 0.2-13.2 0.2-34.6 0.2-47.5 0-12.9-0.1-2.1-0.2 24-0.2z"/><path class="e" d="m817 1317.4c15.7 0 22 0.2 14 0.3-8 0.2-20.8 0.2-28.5 0-7.7-0.1-1.2-0.3 14.5-0.3z"/><path class="a" d="m1382.8 617.7c229.1 0.2 271.2 0.5 274.2 1.7 1.9 0.7 4.7 2.8 6.3 4.5 1.5 1.7 3 4.8 3.3 6.8 0.4 2.1 0.4 6.3 0.1 9.3-0.2 3-3.7 20.8-7.6 39.5-3.9 18.7-7.7 36.2-8.5 39-0.9 2.7-2.8 7-4.4 9.5-1.9 3.1-4.3 5.3-12.7 9.5l-269.5 0.3c-148.2 0.2-271.7 0-274.5-0.3-2.7-0.2-6.6-1.5-8.5-2.8-1.9-1.2-4.5-4.2-5.8-6.7-2-3.7-2.3-5.5-1.8-10.5 0.3-3.3 4.1-22.7 8.4-43 4.4-20.4 8.9-39.3 10.1-42 1.2-2.8 3.4-6.3 4.9-7.8 1.5-1.6 3.9-3.5 5.5-4.3 1.5-0.8 4.3-1.7 6.2-2.2 2-0.4 125.4-0.6 274.3-0.5z"/><path class="b" d="m1391 617.5c128.4 0 180.8 0.1 116.5 0.2-64.3 0.2-169.4 0.2-233.5 0-64.1-0.1-11.4-0.2 117-0.2z"/><path class="f" d="m1254.5 738.5c86.3 0 121.9 0.1 79 0.2-42.9 0.2-113.5 0.2-157 0-43.5-0.1-8.3-0.2 78-0.2z"/></svg>